<svg xmlns="http://www.w3.org/2000/svg" viewBox="0 0 249.84 119.93"><g id="Layer_2" data-name="Layer 2"><g id="Layer_2-2" data-name="Layer 2"><path d="M123.57,9.54a4.34,4.34,0,0,1,1.16,2.9q0,2.89-4.39,8-3.32,3.48-6.62,7-6.7,19-12.33,40.81-6.7,25.82-7,37.82a19.19,19.19,0,0,1,1.4,5.13q0,3.31-6.12,7.45a4.13,4.13,0,0,1-2.24.75A3.49,3.49,0,0,1,84.84,118c-.56-.61-1.08-1.22-1.58-1.82-.82-.55-.82-2.93,0-7.12A386.2,386.2,0,0,0,62.82,65.16Q51.48,44,46.6,37.85,43.19,48.77,34.27,71.54q-4.73,12.17-9.52,24.25,2.23-.84,7,8.44a3.36,3.36,0,0,1,.5,1.49c0,.94-.8,1.43-2.4,1.49,1-.06-.28-.08-4-.08a11.84,11.84,0,0,0-8.69,3.55l-2.07,4.72q-1.49,3.48-4.22,3.48a6.77,6.77,0,0,1-2.48-.58Q-.08,114.91,0,111.59q.17-4.29,13.08-12.08,6.78-12.17,17.3-39.15,8.43-21.51,11-30.21-5.79-9.27-11.83-12.66a8.86,8.86,0,0,0-4.06-1.24q-3.55,0-9.52,4.47a5.17,5.17,0,0,1-3.06,1.16c-1.27,0-1.9-.58-1.9-1.74A4.61,4.61,0,0,1,12.75,17Q21.86,8.23,24,6.57q4.63-3.74,7.87-3.32,5,.59,13.24,12,1.74-4.3,1-6.63A3.4,3.4,0,0,1,46,7.89c0-.72.3-1.08.91-1.08q1.57,0,4.8,2.73a4.85,4.85,0,0,1,1.65,3.89,17.44,17.44,0,0,1-1.07,5.3q-.91,2.4-1.74,4.88A376.89,376.89,0,0,1,73.83,61.19q11,20.19,14.81,31,2.89-18.8,14.07-62.08a46.64,46.64,0,0,1-5.21-4,4.14,4.14,0,0,1-1.41-2.49c0-.93,1-1.33,2.86-1.2s6.6-4.56,14.11-14.11q2.56-3.14,4.3-3.14Q119.76,5.16,123.57,9.54Z"/><path d="M118.07,5.88c8.06.28,13.05,5.21,25.91,24.91Q148.7,20,148.7,11.34q0-4.47,1.32-4.47t5.8,3.56c.88.72,1.29,2.21,1.24,4.47q-.17,4.3-7.7,25.08,14.56,28.31,22.1,51.64Q200.68,43.13,224,15.89a90.13,90.13,0,0,1,7.11-13.08Q233,0,235.52,0q3.89,0,13.74,8a1.49,1.49,0,0,1,.58,1.15c0,1.11-.89,1.66-2.65,1.66a11,11,0,0,1-1.53-.17,10.84,10.84,0,0,0-1.62-.16q-3.89,0-7.86,7.61-16.14,31.29-21,77.89,1.91-3.57,5.05-9.52c.6-1.22,1.35-1.82,2.23-1.82,1.05,0,1.58.69,1.58,2.07a6,6,0,0,1-.58,2.31q-3.65,8.61-6.71,24.75-.73,3.56-3.23,3.56-2.81,0-8.52-4.31c-1.82-1.37-2.87-2.48-3.15-3.31s-.3-2.37.09-4.8q3-18,7.69-40.47,5.47-25.74,7.95-30.37-8.69,10.26-21.35,30.12-12.42,19.55-21.69,37.16a28.19,28.19,0,0,1,1.66,7.7q0,3.23-5.47,8.28c-1.87,1.76-3.11,2.65-3.72,2.65s-2.23-2.21-4.88-6.62a9.46,9.46,0,0,1-1.74-4.47c0-.78.8-2.65,2.4-5.63q-5.29-19.69-19.29-48-8.92,22.51-18.12,41.06,6,6.7,6,9,0,1.81-4.14,2.32-8.69,1-14.57,8.93c-.33,1.71-1.16,2.57-2.48,2.57q-2.82,0-8.69-5c-1.21-1-1.82-1.9-1.82-2.56s.5-1.36,1.49-2.24A103.66,103.66,0,0,1,113.77,100a281,281,0,0,0,25.08-53.8Q128.76,24,113.77,15.23"/></g></g></svg>