<svg xmlns="http://www.w3.org/2000/svg" viewBox="0 0 168.46 100.66"><g id="Layer_2" data-name="Layer 2"><g id="Layer_1-2" data-name="Layer 1"><path d="M0,98.37V93.5H7.61c2,0,3.34-.44,4.1-1.3s1.15-2.55,1.15-5.06V9.7c0-2.12-.42-3.51-1.26-4.18s-2.59-1-5.25-1H.29V0H40.12l41.46,56.6V11.84q0-4.5-1.37-5.91t-5.87-1.4H68V0H99.46V4.53H93.7Q90,4.53,88.6,6c-.94,1-1.41,3-1.41,5.8v88.82H83.13L18.77,12.14v76a5.3,5.3,0,0,0,1.44,4,5.72,5.72,0,0,0,4.17,1.41h8.8v4.87Z"/><path d="M87.05,56.37,128.34,0h39.82V4.51h-6q-4,0-5.25,1T155.6,9.68V87.12q0,3.76,1.15,5.06c.76.86,2.13,1.3,4.1,1.3h7.61v4.87H135.28V93.48h8.8a5.72,5.72,0,0,0,4.17-1.41,5.3,5.3,0,0,0,1.44-4v-76L87.15,100.64h0"/></g></g></svg>